<?xml version="1.0" standalone="no"?>
<!DOCTYPE svg PUBLIC "-//W3C//DTD SVG 20010904//EN"
 "http://www.w3.org/TR/2001/REC-SVG-20010904/DTD/svg10.dtd">
<svg version="1.0" xmlns="http://www.w3.org/2000/svg"
 width="710.000000pt" height="710.000000pt" viewBox="0 0 710.000000 710.000000"
 preserveAspectRatio="xMidYMid meet">
<metadata>
Created by potrace 1.11, written by Peter Selinger 2001-2013
</metadata>
<g transform="translate(0.000000,710.000000) scale(0.100000,-0.100000)"
fill="#000000" stroke="none">
<path d="M5064 5906 c-18 -11 -46 -29 -63 -38 -29 -16 -31 -20 -25 -58 l7 -40
-54 -25 c-62 -29 -87 -31 -95 -10 -11 28 -34 15 -56 -32 -13 -27 -24 -50 -26
-52 -1 -3 -22 14 -45 37 -24 23 -47 42 -53 42 -6 0 -15 -12 -20 -27 l-11 -28
-13 28 c-7 15 -17 27 -21 27 -4 0 -22 -18 -39 -40 -18 -23 -40 -40 -52 -40
-11 0 -38 15 -61 34 -75 61 -119 58 -131 -9 -4 -19 -16 -44 -28 -55 l-21 -19
87 -84 c47 -46 86 -91 86 -99 0 -8 9 -23 20 -33 19 -17 20 -17 28 4 7 20 9 20
31 5 21 -15 23 -22 17 -71 -12 -105 35 -166 176 -227 l76 -33 24 35 c39 60
101 59 181 -2 64 -49 39 -110 -26 -64 -46 33 -143 32 -187 0 l-32 -24 -23 22
c-35 33 -95 37 -146 10 l-43 -22 -16 22 c-16 21 -20 21 -71 11 -30 -6 -71 -13
-93 -16 l-39 -6 7 -46 c3 -25 6 -108 6 -183 l0 -138 88 -4 c48 -2 92 -2 99 0
9 3 13 40 15 120 2 96 6 117 18 117 12 0 16 -21 18 -117 l3 -118 74 -2 c41 -1
83 -2 93 -2 15 -1 18 13 22 119 4 98 8 120 20 120 12 0 16 -21 18 -117 l3
-118 66 0 c60 0 65 -1 47 -14 -23 -17 -22 -18 36 -43 25 -11 80 -45 123 -76
42 -31 96 -61 120 -67 91 -24 100 -30 93 -69 -4 -29 0 -41 30 -78 19 -24 43
-43 53 -43 22 0 43 -23 66 -72 24 -52 172 -217 201 -224 13 -3 35 -22 50 -42
15 -21 36 -45 46 -55 10 -10 21 -35 24 -57 4 -21 15 -53 26 -70 15 -26 24 -31
45 -27 19 3 32 -2 49 -20 13 -14 42 -37 66 -53 24 -15 54 -37 67 -48 25 -23
24 -27 -21 -74 -30 -30 -21 -50 52 -122 39 -38 70 -75 70 -83 0 -8 -7 -28 -16
-45 -10 -19 -13 -40 -8 -57 16 -59 13 -120 -7 -145 -29 -37 -16 -109 38 -226
47 -101 46 -89 27 -223 -5 -33 -1 -53 15 -85 22 -42 21 -65 -1 -124 -9 -23
-15 -27 -35 -22 -18 5 -32 -1 -56 -23 -60 -55 -87 -71 -137 -78 l-49 -7 6 -50
6 -50 -38 16 c-52 22 -80 20 -109 -8 -31 -28 -32 -52 -5 -115 14 -34 31 -54
55 -67 19 -10 35 -23 35 -29 1 -5 2 -25 3 -43 1 -32 0 -33 -29 -28 -16 4 -41
18 -55 31 -30 29 -53 31 -103 10 -44 -18 -89 -19 -105 -3 -18 18 -32 -6 -32
-54 0 -46 -23 -63 -97 -73 -58 -8 -58 -8 -42 -53 9 -26 24 -38 77 -63 37 -17
75 -38 84 -47 16 -14 16 -16 -7 -44 -39 -46 -48 -97 -40 -236 7 -113 9 -123
26 -119 26 7 30 -16 5 -30 -19 -11 -15 -12 30 -13 57 0 79 18 128 103 25 44
37 53 112 87 95 44 111 69 80 124 l-18 31 24 -21 c59 -54 108 -51 108 6 0 23
-16 47 -67 102 l-68 73 67 -62 c61 -58 88 -75 88 -55 0 4 -7 18 -16 30 -13 20
-13 22 0 22 19 0 38 33 30 54 -3 8 -20 18 -37 22 l-32 8 35 6 c39 6 50 29 25
54 -9 9 -12 16 -6 16 6 0 11 9 11 20 0 11 5 20 10 20 6 0 10 -6 10 -14 0 -18
26 -40 34 -27 8 13 41 3 62 -20 16 -18 17 -18 42 1 13 11 31 20 38 20 7 0 35
14 61 30 26 17 54 30 63 30 9 0 28 16 41 36 15 24 39 43 67 53 23 9 49 26 57
38 8 11 37 35 64 52 37 24 51 40 57 64 3 17 17 39 30 50 26 20 32 55 10 63 -8
3 -12 13 -9 25 3 10 9 16 14 13 14 -8 11 47 -6 101 -16 55 -13 64 12 44 15
-13 16 -12 9 6 -5 11 -13 32 -19 46 -6 14 -7 35 -3 45 7 18 8 17 26 -6 l20
-25 0 46 c0 42 -17 93 -63 188 -10 19 -9 25 1 29 10 3 10 7 2 17 -6 8 -13 47
-15 88 -1 41 -8 84 -14 96 -6 11 -28 67 -47 123 -19 57 -49 123 -66 147 -22
31 -32 56 -33 88 -1 26 -8 50 -18 60 -11 12 -17 13 -17 5 0 -15 -135 135 -162
179 -11 18 -23 27 -30 23 -6 -4 -8 -3 -5 2 19 32 -68 119 -97 95 -8 -7 -19 -1
-39 24 -15 19 -40 42 -57 52 -16 9 -30 25 -30 34 0 22 -55 69 -81 69 -14 0
-19 7 -19 25 0 27 -2 29 -86 89 -35 26 -74 65 -93 94 -18 28 -42 54 -53 58
-16 5 -19 14 -17 47 1 23 1 47 0 53 0 6 -35 37 -77 69 l-77 57 -106 1 -106 0
101 6 101 6 -23 45 c-13 25 -24 41 -24 36 0 -5 -14 12 -32 38 l-31 48 16 47
c9 27 15 75 14 117 -2 92 22 149 68 164 62 21 105 86 105 161 0 28 4 39 15 39
21 0 30 27 15 45 -7 8 -10 24 -7 35 3 12 -1 24 -11 30 -10 5 -12 10 -6 10 6 0
19 -9 29 -20 l18 -20 27 25 c30 28 42 32 34 10 -8 -20 20 -20 51 1 19 12 25
25 25 50 0 24 5 37 18 41 9 3 31 18 47 34 20 18 43 29 69 31 l40 3 -42 29
c-37 25 -45 27 -69 17 -35 -14 -80 -10 -113 11 -14 9 -35 19 -47 23 -13 3 -23
11 -23 16 0 22 -50 59 -78 59 -27 0 -32 6 -55 63 -38 97 -42 123 -18 130 26 7
27 33 1 75 -20 33 -22 33 -73 27 -42 -5 -56 -3 -66 9 -9 11 -30 16 -66 16 -57
0 -111 30 -170 95 l-30 32 -31 -21z m-20 -942 c9 -8 16 -19 16 -24 0 -4 13
-13 29 -20 16 -6 37 -21 47 -31 17 -19 16 -21 -4 -48 -12 -17 -19 -37 -15 -49
4 -16 -4 -25 -37 -42 -26 -13 -51 -19 -66 -16 -24 6 -24 8 -24 126 0 112 1
120 19 120 11 0 27 -7 35 -16z"/>
<path d="M3451 5659 c-139 -89 -328 -180 -486 -232 -145 -48 -377 -107 -422
-107 -14 0 -47 -8 -73 -17 l-48 -17 39 -53 c22 -28 39 -58 39 -65 0 -7 12 -33
26 -58 14 -24 35 -78 46 -120 29 -105 21 -252 -22 -410 -17 -63 -38 -146 -46
-184 -8 -38 -49 -162 -90 -275 -70 -193 -222 -619 -406 -1141 -44 -124 -83
-228 -87 -232 -4 -5 -32 70 -64 165 -95 291 -304 914 -428 1279 l-117 346 110
103 110 102 -51 51 -51 50 -108 -104 c-60 -58 -126 -119 -147 -135 l-38 -31
118 -329 c64 -182 171 -481 236 -665 66 -184 124 -344 129 -355 18 -37 180
-503 180 -517 0 -8 7 -36 17 -63 14 -42 15 -57 4 -109 -7 -34 -15 -65 -19 -70
-6 -11 -4 -18 -138 369 -57 165 -169 489 -249 720 -194 559 -309 900 -323 955
-6 25 -13 52 -16 60 -4 10 40 68 120 160 69 80 144 166 166 193 l40 47 -581 0
-581 0 0 -56 c0 -56 1 -58 68 -133 37 -41 95 -103 128 -136 l61 -61 118 -329
c135 -378 347 -968 429 -1194 31 -85 56 -160 56 -168 0 -14 53 -164 188 -538
l69 -190 -151 -155 -151 -155 584 -3 c565 -2 584 -3 608 -22 l26 -20 -567 0
c-311 0 -566 -3 -566 -6 0 -3 17 -37 38 -75 l37 -69 643 0 c430 0 642 3 642
10 0 11 -95 137 -117 155 -6 6 -63 77 -126 159 l-114 149 79 201 c189 478 278
711 278 722 0 7 13 46 29 86 16 40 90 228 164 418 213 541 349 861 438 1030
l40 75 107 0 106 0 -3 104 c-3 125 -4 125 101 -16 l69 -93 94 0 95 0 0 158 c0
86 3 214 7 285 l6 127 -113 0 -113 0 7 -117 c4 -65 5 -115 3 -113 -2 3 -24 33
-50 66 l-46 62 48 63 c57 75 91 111 185 198 l69 63 -18 52 c-10 28 -21 55 -26
60 -13 14 -158 -105 -271 -223 -82 -85 -113 -111 -132 -111 -14 0 -26 3 -26 6
0 8 52 75 76 99 12 11 55 61 97 110 41 50 89 104 107 120 17 17 40 42 50 56
l19 26 -37 36 -38 37 -93 -61z m-261 -609 c0 -18 -40 -98 -112 -222 -132 -228
-242 -460 -343 -723 -40 -104 -109 -286 -154 -402 -44 -117 -81 -219 -81 -228
0 -8 -30 -90 -66 -182 -37 -93 -117 -301 -179 -463 -218 -569 -267 -695 -271
-699 -2 -3 -11 2 -19 10 -13 13 -6 36 56 194 39 99 131 335 205 525 74 190
141 359 148 375 25 53 126 321 126 334 0 12 99 276 130 346 10 22 47 114 83
205 135 346 307 715 414 892 49 79 63 88 63 38z"/>
<path d="M3895 5041 c-65 -40 -95 -100 -95 -191 0 -145 112 -237 225 -183 30
15 37 15 48 2 9 -11 32 -13 100 -11 l87 3 -6 122 c-4 76 -2 145 5 181 8 44 8
62 0 67 -6 3 -45 12 -87 19 -65 12 -76 11 -86 -2 -9 -12 -16 -13 -41 -2 -44
19 -115 17 -150 -5z m153 -153 c30 -30 -2 -93 -36 -71 -21 13 -27 50 -12 69
15 17 32 18 48 2z"/>
<path d="M3550 3619 c-33 -14 -68 -47 -88 -84 -25 -46 -23 -180 3 -224 29 -49
67 -73 124 -79 69 -6 115 4 152 35 94 79 91 268 -4 337 -32 24 -145 33 -187
15z m136 -73 c24 -20 28 -32 32 -89 5 -82 -11 -133 -48 -152 -56 -29 -103 -14
-126 40 -19 45 -18 129 2 170 27 57 93 72 140 31z"/>
<path d="M4773 3610 c-22 -13 -36 -32 -44 -61 -11 -37 -11 -46 7 -78 12 -22
37 -45 65 -61 62 -33 79 -49 79 -71 0 -45 -59 -63 -114 -34 -41 22 -48 19 -44
-17 4 -41 34 -58 103 -58 89 0 154 63 141 138 -7 45 -29 68 -98 103 -45 23
-58 34 -58 52 0 47 37 59 92 31 36 -19 54 -7 45 29 -13 47 -114 64 -174 27z"/>
<path d="M3134 3605 c-12 -31 4 -45 51 -45 l45 0 0 -160 0 -160 40 0 40 0 0
160 0 160 55 0 c54 0 55 0 55 30 l0 30 -140 0 c-116 0 -142 -3 -146 -15z"/>
<path d="M3870 3475 c0 -169 14 -214 71 -234 80 -28 175 -5 209 51 18 29 20
50 20 181 l0 148 -37 -3 -38 -3 -5 -143 c-5 -136 -6 -145 -29 -163 -30 -24
-62 -24 -92 0 -23 18 -24 26 -27 165 l-3 146 -35 0 -34 0 0 -145z"/>
<path d="M4257 3613 c-4 -3 -7 -89 -7 -190 l0 -183 40 0 40 0 0 75 c0 68 2 75
20 75 29 0 53 -29 80 -93 24 -57 24 -57 67 -57 24 0 43 4 43 9 0 18 -53 127
-72 148 -20 21 -20 21 1 28 45 14 66 100 35 143 -27 39 -67 52 -157 52 -46 0
-87 -3 -90 -7z m154 -63 c27 -15 25 -64 -3 -84 -12 -9 -35 -16 -50 -16 -27 0
-28 2 -28 55 0 55 0 55 31 55 17 0 39 -5 50 -10z"/>
<path d="M4590 3430 l0 -190 35 0 35 0 0 190 0 190 -35 0 -35 0 0 -190z"/>
<path d="M5027 3613 c-4 -3 -7 -89 -7 -190 l0 -184 38 3 37 3 5 140 c3 89 8
130 13 113 4 -15 26 -79 48 -143 l41 -115 39 0 c37 0 39 2 49 43 6 23 26 86
43 140 l32 97 5 -137 5 -138 38 -3 37 -3 -2 188 -3 188 -52 3 c-50 3 -54 1
-73 -30 -11 -18 -20 -41 -20 -51 0 -31 -52 -169 -60 -160 -5 4 -25 55 -45 113
-21 58 -42 111 -47 118 -11 12 -109 17 -121 5z"/>
<path d="M6241 3604 c0 -11 3 -14 6 -6 3 7 2 16 -1 19 -3 4 -6 -2 -5 -13z"/>
<path d="M2989 2433 l-54 -58 50 -3 c45 -3 52 -1 75 28 l25 31 30 -31 c22 -23
37 -30 67 -30 21 0 38 3 38 8 0 4 -17 30 -38 57 -36 47 -41 50 -88 53 -50 3
-51 2 -105 -55z"/>
<path d="M2646 2351 c-3 -5 5 -16 19 -25 l25 -16 0 -207 0 -207 -27 -23 -28
-22 100 -3 100 -2 -87 -3 c-131 -5 -108 -23 28 -23 l116 0 -31 35 -31 36 0
201 c0 173 2 204 16 220 14 14 14 20 4 33 -9 11 -34 15 -106 15 -51 0 -95 -4
-98 -9z"/>
<path d="M3240 2351 c0 -15 53 -126 64 -133 23 -16 46 -8 52 17 7 30 40 56 60
48 11 -4 14 -42 14 -191 l0 -186 -27 -28 -27 -28 95 -2 94 -2 -82 -3 c-123 -5
-102 -23 27 -23 61 0 110 3 110 7 0 4 -12 20 -27 36 l-28 28 -3 195 -4 195 29
-7 c15 -3 35 -15 45 -25 9 -10 21 -19 27 -19 6 0 8 -7 5 -15 -4 -10 0 -15 13
-15 13 0 27 17 46 55 32 67 32 65 6 65 -17 0 -19 3 -10 13 6 8 8 17 4 20 -10
10 -483 8 -483 -2z m165 -41 c-11 -5 -27 -9 -35 -9 -9 0 -8 4 5 9 11 5 27 9
35 9 9 0 8 -4 -5 -9z m200 -12 c7 -8 5 -9 -8 -4 -10 3 -30 6 -43 6 -13 0 -24
5 -24 11 0 14 60 4 75 -13z"/>
<path d="M2935 2318 c-3 -8 -4 -121 -3 -253 l3 -240 145 0 145 0 0 35 0 35
-92 3 -93 3 0 74 0 75 80 0 80 0 0 40 0 40 -80 0 -80 0 0 60 0 59 93 3 92 3 0
35 0 35 -143 3 c-109 2 -144 0 -147 -10z"/>
<path d="M3042 1788 c-7 -7 -12 -24 -12 -38 0 -36 17 -50 62 -50 31 0 41 5 50
25 19 42 -3 75 -50 75 -21 0 -43 -5 -50 -12z"/>
<path d="M6080 410 c0 -5 5 -10 10 -10 6 0 10 5 10 10 0 6 -4 10 -10 10 -5 0
-10 -4 -10 -10z"/>
</g>
</svg>
